<svg width="198" height="198" viewBox="0 0 198 198" fill="none" xmlns="http://www.w3.org/2000/svg">
<path fill-rule="evenodd" clip-rule="evenodd" d="M178 0C189.046 0 198 8.95431 198 20V178C198 189.046 189.046 198 178 198H20C8.95431 198 0 189.046 0 178V20C0 8.95431 8.95431 0 20 0H178ZM162.432 114.077C161.826 113.896 161.174 113.97 160.624 114.283L106.965 144.868C106.256 145.272 105.81 146.02 105.786 146.84C105.762 147.676 106.19 148.441 106.878 148.895C115.792 154.77 124.922 160.382 134.29 165.495C144.063 170.83 154.337 175.629 163.01 177.658C167.325 178.668 171.75 179.119 175.71 178.238C179.937 177.299 183.616 174.815 185.644 170.392L185.836 169.946C187.68 165.474 186.793 160.335 184.538 155.586C177.933 141.999 170.755 128.668 163.835 115.242C163.544 114.678 163.037 114.258 162.432 114.077ZM140.076 70.7607C139.471 70.5803 138.819 70.6549 138.27 70.9678L24.7578 135.67C24.418 135.864 24.1329 136.14 23.9277 136.473C20.1113 143.146 16.7662 150.139 13.167 156.935C11.0764 160.883 10.117 166.194 12.8516 170.848C13.7117 172.311 15.0327 173.379 16.499 174.203C19.5354 175.91 23.0337 176.889 26.4238 177.564C26.9699 177.673 27.537 177.582 28.0215 177.306L155.764 104.492C156.853 103.871 157.258 102.492 156.681 101.373C151.631 91.5855 146.406 81.4618 141.479 71.9258C141.188 71.362 140.681 70.9413 140.076 70.7607ZM109.5 19.8975C103.425 17.9211 96.2835 17.7348 90.125 19.4375C87.2883 20.2219 83.7877 21.7439 81.709 24.8545C81.2725 25.4824 80.941 26.1837 80.6035 26.8691C79.2798 29.557 77.9795 32.5623 76.3262 35.0596C63.1108 60.4146 50.1416 85.8216 37.0674 111.143C36.5925 112.063 36.7747 113.188 37.5156 113.908C38.2568 114.628 39.3809 114.772 40.2773 114.262L133.396 61.1846C134.487 60.5629 134.892 59.1835 134.313 58.0645C125.822 41.6425 119.242 28.9434 117.784 26.1846C117.683 25.9685 117.564 25.7537 117.441 25.5488L117.103 25.0078C115.197 22.1834 111.985 20.706 109.5 19.8975Z" fill="black"/>
</svg>
